<?xml version="1.0" encoding="UTF-8"?>
<!DOCTYPE svg PUBLIC "-//W3C//DTD SVG 1.1//EN" "http://www.w3.org/Graphics/SVG/1.1/DTD/svg11.dtd">
<svg width="160mm" height="90mm" viewBox="0 0 16000 9000" version="1.1" xmlns="http://www.w3.org/2000/svg" xmlns:xlink="http://www.w3.org/1999/xlink" stroke-width="28.222" stroke-linejoin="round" xml:space="preserve">
 <path fill="rgb(255,255,255)" stroke="none" d="M 8000,8999 L 0,8999 0,0 15999,0 15999,8999 8000,8999 Z"/>
 <path fill="none" stroke="rgb(179,179,179)" stroke-linejoin="round" d="M 7888,7216 L 2253,7216 2253,2350 13522,2350 13522,7216 7888,7216 Z"/>
 <path fill="none" stroke="rgb(179,179,179)" stroke-linejoin="round" d="M 13522,7215 L 2253,7215"/>
 <path fill="none" stroke="rgb(179,179,179)" stroke-linejoin="round" d="M 13522,6519 L 2253,6519"/>
 <path fill="none" stroke="rgb(179,179,179)" stroke-linejoin="round" d="M 13522,5824 L 2253,5824"/>
 <path fill="none" stroke="rgb(179,179,179)" stroke-linejoin="round" d="M 13522,5129 L 2253,5129"/>
 <path fill="none" stroke="rgb(179,179,179)" stroke-linejoin="round" d="M 13522,4434 L 2253,4434"/>
 <path fill="none" stroke="rgb(179,179,179)" stroke-linejoin="round" d="M 13522,3739 L 2253,3739"/>
 <path fill="none" stroke="rgb(179,179,179)" stroke-linejoin="round" d="M 13522,3044 L 2253,3044"/>
 <path fill="none" stroke="rgb(179,179,179)" stroke-linejoin="round" d="M 13522,2349 L 2253,2349"/>
 <path fill="none" stroke="rgb(179,179,179)" stroke-linejoin="round" d="M 2253,7365 L 2253,7215"/>
 <path fill="none" stroke="rgb(179,179,179)" stroke-linejoin="round" d="M 2253,7365 L 2253,7215"/>
 <path fill="none" stroke="rgb(179,179,179)" stroke-linejoin="round" d="M 2816,7365 L 2816,7215"/>
 <path fill="none" stroke="rgb(179,179,179)" stroke-linejoin="round" d="M 2816,7365 L 2816,7215"/>
 <path fill="none" stroke="rgb(179,179,179)" stroke-linejoin="round" d="M 3380,7365 L 3380,7215"/>
 <path fill="none" stroke="rgb(179,179,179)" stroke-linejoin="round" d="M 3380,7365 L 3380,7215"/>
 <path fill="none" stroke="rgb(179,179,179)" stroke-linejoin="round" d="M 3943,7365 L 3943,7215"/>
 <path fill="none" stroke="rgb(179,179,179)" stroke-linejoin="round" d="M 3943,7365 L 3943,7215"/>
 <path fill="none" stroke="rgb(179,179,179)" stroke-linejoin="round" d="M 4507,7365 L 4507,7215"/>
 <path fill="none" stroke="rgb(179,179,179)" stroke-linejoin="round" d="M 4507,7365 L 4507,7215"/>
 <path fill="none" stroke="rgb(179,179,179)" stroke-linejoin="round" d="M 5070,7365 L 5070,7215"/>
 <path fill="none" stroke="rgb(179,179,179)" stroke-linejoin="round" d="M 5070,7365 L 5070,7215"/>
 <path fill="none" stroke="rgb(179,179,179)" stroke-linejoin="round" d="M 5634,7365 L 5634,7215"/>
 <path fill="none" stroke="rgb(179,179,179)" stroke-linejoin="round" d="M 5634,7365 L 5634,7215"/>
 <path fill="none" stroke="rgb(179,179,179)" stroke-linejoin="round" d="M 6197,7365 L 6197,7215"/>
 <path fill="none" stroke="rgb(179,179,179)" stroke-linejoin="round" d="M 6197,7365 L 6197,7215"/>
 <path fill="none" stroke="rgb(179,179,179)" stroke-linejoin="round" d="M 6761,7365 L 6761,7215"/>
 <path fill="none" stroke="rgb(179,179,179)" stroke-linejoin="round" d="M 6761,7365 L 6761,7215"/>
 <path fill="none" stroke="rgb(179,179,179)" stroke-linejoin="round" d="M 7324,7365 L 7324,7215"/>
 <path fill="none" stroke="rgb(179,179,179)" stroke-linejoin="round" d="M 7324,7365 L 7324,7215"/>
 <path fill="none" stroke="rgb(179,179,179)" stroke-linejoin="round" d="M 7888,7365 L 7888,7215"/>
 <path fill="none" stroke="rgb(179,179,179)" stroke-linejoin="round" d="M 7888,7365 L 7888,7215"/>
 <path fill="none" stroke="rgb(179,179,179)" stroke-linejoin="round" d="M 8450,7365 L 8450,7215"/>
 <path fill="none" stroke="rgb(179,179,179)" stroke-linejoin="round" d="M 8450,7365 L 8450,7215"/>
 <path fill="none" stroke="rgb(179,179,179)" stroke-linejoin="round" d="M 9014,7365 L 9014,7215"/>
 <path fill="none" stroke="rgb(179,179,179)" stroke-linejoin="round" d="M 9014,7365 L 9014,7215"/>
 <path fill="none" stroke="rgb(179,179,179)" stroke-linejoin="round" d="M 9577,7365 L 9577,7215"/>
 <path fill="none" stroke="rgb(179,179,179)" stroke-linejoin="round" d="M 9577,7365 L 9577,7215"/>
 <path fill="none" stroke="rgb(179,179,179)" stroke-linejoin="round" d="M 10141,7365 L 10141,7215"/>
 <path fill="none" stroke="rgb(179,179,179)" stroke-linejoin="round" d="M 10141,7365 L 10141,7215"/>
 <path fill="none" stroke="rgb(179,179,179)" stroke-linejoin="round" d="M 10704,7365 L 10704,7215"/>
 <path fill="none" stroke="rgb(179,179,179)" stroke-linejoin="round" d="M 10704,7365 L 10704,7215"/>
 <path fill="none" stroke="rgb(179,179,179)" stroke-linejoin="round" d="M 11268,7365 L 11268,7215"/>
 <path fill="none" stroke="rgb(179,179,179)" stroke-linejoin="round" d="M 11268,7365 L 11268,7215"/>
 <path fill="none" stroke="rgb(179,179,179)" stroke-linejoin="round" d="M 11831,7365 L 11831,7215"/>
 <path fill="none" stroke="rgb(179,179,179)" stroke-linejoin="round" d="M 11831,7365 L 11831,7215"/>
 <path fill="none" stroke="rgb(179,179,179)" stroke-linejoin="round" d="M 12395,7365 L 12395,7215"/>
 <path fill="none" stroke="rgb(179,179,179)" stroke-linejoin="round" d="M 12395,7365 L 12395,7215"/>
 <path fill="none" stroke="rgb(179,179,179)" stroke-linejoin="round" d="M 12958,7365 L 12958,7215"/>
 <path fill="none" stroke="rgb(179,179,179)" stroke-linejoin="round" d="M 12958,7365 L 12958,7215"/>
 <path fill="none" stroke="rgb(179,179,179)" stroke-linejoin="round" d="M 13522,7365 L 13522,7215"/>
 <path fill="none" stroke="rgb(179,179,179)" stroke-linejoin="round" d="M 13522,7365 L 13522,7215"/>
 <path fill="none" stroke="rgb(179,179,179)" stroke-linejoin="round" d="M 2253,7215 L 13522,7215"/>
 <path fill="none" stroke="rgb(179,179,179)" stroke-linejoin="round" d="M 2103,7215 L 2253,7215"/>
 <path fill="none" stroke="rgb(179,179,179)" stroke-linejoin="round" d="M 2103,7215 L 2253,7215"/>
 <path fill="none" stroke="rgb(179,179,179)" stroke-linejoin="round" d="M 2103,6519 L 2253,6519"/>
 <path fill="none" stroke="rgb(179,179,179)" stroke-linejoin="round" d="M 2103,6519 L 2253,6519"/>
 <path fill="none" stroke="rgb(179,179,179)" stroke-linejoin="round" d="M 2103,5824 L 2253,5824"/>
 <path fill="none" stroke="rgb(179,179,179)" stroke-linejoin="round" d="M 2103,5824 L 2253,5824"/>
 <path fill="none" stroke="rgb(179,179,179)" stroke-linejoin="round" d="M 2103,5129 L 2253,5129"/>
 <path fill="none" stroke="rgb(179,179,179)" stroke-linejoin="round" d="M 2103,5129 L 2253,5129"/>
 <path fill="none" stroke="rgb(179,179,179)" stroke-linejoin="round" d="M 2103,4434 L 2253,4434"/>
 <path fill="none" stroke="rgb(179,179,179)" stroke-linejoin="round" d="M 2103,4434 L 2253,4434"/>
 <path fill="none" stroke="rgb(179,179,179)" stroke-linejoin="round" d="M 2103,3739 L 2253,3739"/>
 <path fill="none" stroke="rgb(179,179,179)" stroke-linejoin="round" d="M 2103,3739 L 2253,3739"/>
 <path fill="none" stroke="rgb(179,179,179)" stroke-linejoin="round" d="M 2103,3044 L 2253,3044"/>
 <path fill="none" stroke="rgb(179,179,179)" stroke-linejoin="round" d="M 2103,3044 L 2253,3044"/>
 <path fill="none" stroke="rgb(179,179,179)" stroke-linejoin="round" d="M 2103,2349 L 2253,2349"/>
 <path fill="none" stroke="rgb(179,179,179)" stroke-linejoin="round" d="M 2103,2349 L 2253,2349"/>
 <path fill="none" stroke="rgb(179,179,179)" stroke-linejoin="round" d="M 2253,7215 L 2253,2349"/>
 <path fill="none" stroke="rgb(255,56,56)" stroke-width="80" stroke-linejoin="round" d="M 2253,2694 L 2816,3806 3380,4836 3943,5588 4507,6090 5070,6434 5634,6664 6197,6825 6761,6928 7324,7005 7888,7055 8450,7091 9014,7119 9577,7139 10141,7151 10704,7160 11268,7168 11831,7174 12395,7181 12958,7186 13522,7189"/>
 <text class="TextShape"><tspan class="TextParagraph" font-family="Liberation Sans, sans-serif" font-size="353px" font-weight="400"><tspan class="TextPosition" x="2156" y="7783"><tspan fill="rgb(0,0,0)" stroke="none">1</tspan></tspan></tspan></text>
 <text class="TextShape"><tspan class="TextParagraph" font-family="Liberation Sans, sans-serif" font-size="353px" font-weight="400"><tspan class="TextPosition" x="2719" y="7783"><tspan fill="rgb(0,0,0)" stroke="none">2</tspan></tspan></tspan></text>
 <text class="TextShape"><tspan class="TextParagraph" font-family="Liberation Sans, sans-serif" font-size="353px" font-weight="400"><tspan class="TextPosition" x="3283" y="7783"><tspan fill="rgb(0,0,0)" stroke="none">3</tspan></tspan></tspan></text>
 <text class="TextShape"><tspan class="TextParagraph" font-family="Liberation Sans, sans-serif" font-size="353px" font-weight="400"><tspan class="TextPosition" x="3846" y="7783"><tspan fill="rgb(0,0,0)" stroke="none">4</tspan></tspan></tspan></text>
 <text class="TextShape"><tspan class="TextParagraph" font-family="Liberation Sans, sans-serif" font-size="353px" font-weight="400"><tspan class="TextPosition" x="4410" y="7783"><tspan fill="rgb(0,0,0)" stroke="none">5</tspan></tspan></tspan></text>
 <text class="TextShape"><tspan class="TextParagraph" font-family="Liberation Sans, sans-serif" font-size="353px" font-weight="400"><tspan class="TextPosition" x="4973" y="7783"><tspan fill="rgb(0,0,0)" stroke="none">6</tspan></tspan></tspan></text>
 <text class="TextShape"><tspan class="TextParagraph" font-family="Liberation Sans, sans-serif" font-size="353px" font-weight="400"><tspan class="TextPosition" x="5537" y="7783"><tspan fill="rgb(0,0,0)" stroke="none">7</tspan></tspan></tspan></text>
 <text class="TextShape"><tspan class="TextParagraph" font-family="Liberation Sans, sans-serif" font-size="353px" font-weight="400"><tspan class="TextPosition" x="6100" y="7783"><tspan fill="rgb(0,0,0)" stroke="none">8</tspan></tspan></tspan></text>
 <text class="TextShape"><tspan class="TextParagraph" font-family="Liberation Sans, sans-serif" font-size="353px" font-weight="400"><tspan class="TextPosition" x="6664" y="7783"><tspan fill="rgb(0,0,0)" stroke="none">9</tspan></tspan></tspan></text>
 <text class="TextShape"><tspan class="TextParagraph" font-family="Liberation Sans, sans-serif" font-size="353px" font-weight="400"><tspan class="TextPosition" x="7130" y="7783"><tspan fill="rgb(0,0,0)" stroke="none">10</tspan></tspan></tspan></text>
 <text class="TextShape"><tspan class="TextParagraph" font-family="Liberation Sans, sans-serif" font-size="353px" font-weight="400"><tspan class="TextPosition" x="7694" y="7783"><tspan fill="rgb(0,0,0)" stroke="none">11</tspan></tspan></tspan></text>
 <text class="TextShape"><tspan class="TextParagraph" font-family="Liberation Sans, sans-serif" font-size="353px" font-weight="400"><tspan class="TextPosition" x="8257" y="7783"><tspan fill="rgb(0,0,0)" stroke="none">12</tspan></tspan></tspan></text>
 <text class="TextShape"><tspan class="TextParagraph" font-family="Liberation Sans, sans-serif" font-size="353px" font-weight="400"><tspan class="TextPosition" x="8821" y="7783"><tspan fill="rgb(0,0,0)" stroke="none">13</tspan></tspan></tspan></text>
 <text class="TextShape"><tspan class="TextParagraph" font-family="Liberation Sans, sans-serif" font-size="353px" font-weight="400"><tspan class="TextPosition" x="9384" y="7783"><tspan fill="rgb(0,0,0)" stroke="none">14</tspan></tspan></tspan></text>
 <text class="TextShape"><tspan class="TextParagraph" font-family="Liberation Sans, sans-serif" font-size="353px" font-weight="400"><tspan class="TextPosition" x="9948" y="7783"><tspan fill="rgb(0,0,0)" stroke="none">15</tspan></tspan></tspan></text>
 <text class="TextShape"><tspan class="TextParagraph" font-family="Liberation Sans, sans-serif" font-size="353px" font-weight="400"><tspan class="TextPosition" x="10511" y="7783"><tspan fill="rgb(0,0,0)" stroke="none">16</tspan></tspan></tspan></text>
 <text class="TextShape"><tspan class="TextParagraph" font-family="Liberation Sans, sans-serif" font-size="353px" font-weight="400"><tspan class="TextPosition" x="11075" y="7783"><tspan fill="rgb(0,0,0)" stroke="none">17</tspan></tspan></tspan></text>
 <text class="TextShape"><tspan class="TextParagraph" font-family="Liberation Sans, sans-serif" font-size="353px" font-weight="400"><tspan class="TextPosition" x="11638" y="7783"><tspan fill="rgb(0,0,0)" stroke="none">18</tspan></tspan></tspan></text>
 <text class="TextShape"><tspan class="TextParagraph" font-family="Liberation Sans, sans-serif" font-size="353px" font-weight="400"><tspan class="TextPosition" x="12202" y="7783"><tspan fill="rgb(0,0,0)" stroke="none">19</tspan></tspan></tspan></text>
 <text class="TextShape"><tspan class="TextParagraph" font-family="Liberation Sans, sans-serif" font-size="353px" font-weight="400"><tspan class="TextPosition" x="12765" y="7783"><tspan fill="rgb(0,0,0)" stroke="none">20</tspan></tspan></tspan></text>
 <text class="TextShape"><tspan class="TextParagraph" font-family="Liberation Sans, sans-serif" font-size="353px" font-weight="400"><tspan class="TextPosition" x="13329" y="7783"><tspan fill="rgb(0,0,0)" stroke="none">21</tspan></tspan></tspan></text>
 <text class="TextShape"><tspan class="TextParagraph" font-family="Liberation Sans, sans-serif" font-size="353px" font-weight="400"><tspan class="TextPosition" x="1809" y="7340"><tspan fill="rgb(0,0,0)" stroke="none">0</tspan></tspan></tspan></text>
 <text class="TextShape"><tspan class="TextParagraph" font-family="Liberation Sans, sans-serif" font-size="353px" font-weight="400"><tspan class="TextPosition" x="1315" y="6644"><tspan fill="rgb(0,0,0)" stroke="none">0.05</tspan></tspan></tspan></text>
 <text class="TextShape"><tspan class="TextParagraph" font-family="Liberation Sans, sans-serif" font-size="353px" font-weight="400"><tspan class="TextPosition" x="1509" y="5949"><tspan fill="rgb(0,0,0)" stroke="none">0.1</tspan></tspan></tspan></text>
 <text class="TextShape"><tspan class="TextParagraph" font-family="Liberation Sans, sans-serif" font-size="353px" font-weight="400"><tspan class="TextPosition" x="1315" y="5254"><tspan fill="rgb(0,0,0)" stroke="none">0.15</tspan></tspan></tspan></text>
 <text class="TextShape"><tspan class="TextParagraph" font-family="Liberation Sans, sans-serif" font-size="353px" font-weight="400"><tspan class="TextPosition" x="1509" y="4558"><tspan fill="rgb(0,0,0)" stroke="none">0.2</tspan></tspan></tspan></text>
 <text class="TextShape"><tspan class="TextParagraph" font-family="Liberation Sans, sans-serif" font-size="353px" font-weight="400"><tspan class="TextPosition" x="1315" y="3863"><tspan fill="rgb(0,0,0)" stroke="none">0.25</tspan></tspan></tspan></text>
 <text class="TextShape"><tspan class="TextParagraph" font-family="Liberation Sans, sans-serif" font-size="353px" font-weight="400"><tspan class="TextPosition" x="1509" y="3168"><tspan fill="rgb(0,0,0)" stroke="none">0.3</tspan></tspan></tspan></text>
 <text class="TextShape"><tspan class="TextParagraph" font-family="Liberation Sans, sans-serif" font-size="353px" font-weight="400"><tspan class="TextPosition" x="1315" y="2473"><tspan fill="rgb(0,0,0)" stroke="none">0.35</tspan></tspan></tspan></text>
 <text class="TextShape"><tspan class="TextParagraph" font-family="Liberation Sans, sans-serif" font-size="459px" font-weight="400"><tspan class="TextPosition" x="6642" y="877"><tspan fill="rgb(0,0,0)" stroke="none">Training Loss</tspan></tspan></tspan></text>
 <text class="TextShape"><tspan class="TextParagraph" font-family="Liberation Sans, sans-serif" font-size="388px" font-weight="400"><tspan class="TextPosition" x="5213" y="1771"><tspan fill="rgb(0,0,0)" stroke="none">Rubix ML Multi Layer Perceptron</tspan></tspan></tspan></text>
 <path fill="none" stroke="rgb(255,56,56)" stroke-width="80" stroke-linejoin="round" d="M 14154,4499 L 14954,4499"/>
 <text class="TextShape"><tspan class="TextParagraph" font-family="Liberation Sans, sans-serif" font-size="353px" font-weight="400"><tspan class="TextPosition" x="15054" y="4622"><tspan fill="rgb(0,0,0)" stroke="none">loss</tspan></tspan></tspan></text>
 <text class="TextShape"><tspan class="TextParagraph" font-family="Liberation Sans, sans-serif" font-size="318px" font-weight="400"><tspan class="TextPosition" x="7066" y="8414"><tspan fill="rgb(0,0,0)" stroke="none">Epoch</tspan></tspan></tspan></text>
 <text class="TextShape" transform="rotate(-90 828 6010)"><tspan class="TextParagraph" font-family="Liberation Sans, sans-serif" font-size="318px" font-weight="400"><tspan class="TextPosition" x="828" y="6010"><tspan fill="rgb(0,0,0)" stroke="none">Cross Entropy</tspan></tspan></tspan></text>
</svg>